<!--
  - CLOUDERA APPLIED MACHINE LEARNING PROTOTYPE (AMP)
  - (C) Cloudera, Inc. 2024
  - All rights reserved.
  -
  - Applicable Open Source License: Apache 2.0
  -
  - NOTE: Cloudera open source products are modular software products
  - made up of hundreds of individual components, each of which was
  - individually copyrighted.  Each Cloudera open source product is a
  - collective work under U.S. Copyright Law. Your license to use the
  - collective work is as provided in your written agreement with
  - Cloudera.  Used apart from the collective work, this file is
  - licensed for your use pursuant to the open source license
  - identified above.
  -
  - This code is provided to you pursuant a written agreement with
  - (i) Cloudera, Inc. or (ii) a third-party authorized to distribute
  - this code. If you do not have a written agreement with Cloudera nor
  - with an authorized and properly licensed third party, you do not
  - have any rights to access nor to use this code.
  -
  - Absent a written agreement with Cloudera, Inc. ("Cloudera") to the
  - contrary, A) CLOUDERA PROVIDES THIS CODE TO YOU WITHOUT WARRANTIES OF ANY
  - KIND; (B) CLOUDERA DISCLAIMS ANY AND ALL EXPRESS AND IMPLIED
  - WARRANTIES WITH RESPECT TO THIS CODE, INCLUDING BUT NOT LIMITED TO
  - IMPLIED WARRANTIES OF TITLE, NON-INFRINGEMENT, MERCHANTABILITY AND
  - FITNESS FOR A PARTICULAR PURPOSE; (C) CLOUDERA IS NOT LIABLE TO YOU,
  - AND WILL NOT DEFEND, INDEMNIFY, NOR HOLD YOU HARMLESS FOR ANY CLAIMS
  - ARISING FROM OR RELATED TO THE CODE; AND (D)WITH RESPECT TO YOUR EXERCISE
  - OF ANY RIGHTS GRANTED TO YOU FOR THE CODE, CLOUDERA IS NOT LIABLE FOR ANY
  - DIRECT, INDIRECT, INCIDENTAL, SPECIAL, EXEMPLARY, PUNITIVE OR
  - CONSEQUENTIAL DAMAGES INCLUDING, BUT NOT LIMITED TO, DAMAGES
  - RELATED TO LOST REVENUE, LOST PROFITS, LOSS OF INCOME, LOSS OF
  - BUSINESS ADVANTAGE OR UNAVAILABILITY, OR LOSS OR CORRUPTION OF
  - DATA.
  -->

<svg height="200" fill="#5A656D" viewBox="0 0 1024 1024" width="200" xmlns="http://www.w3.org/2000/svg"><path d="m573 421c-23.1 0-41 17.9-41 40s17.9 40 41 40c21.1 0 39-17.9 39-40s-17.9-40-39-40zm-280 0c-23.1 0-41 17.9-41 40s17.9 40 41 40c21.1 0 39-17.9 39-40s-17.9-40-39-40z"/><path d="m894 345c-48.1-66-115.3-110.1-189-130v.1c-17.1-19-36.4-36.5-58-52.1-163.7-119-393.5-82.7-513 81-96.3 133-92.2 311.9 6 439l.8 132.6c0 3.2.5 6.4 1.5 9.4 5.3 16.9 23.3 26.2 40.1 20.9l126.6-39.9c33.5 11.9 68.1 18.7 102.5 20.6l-.5.4c89.1 64.9 205.9 84.4 313 49l127.1 41.4c3.2 1 6.5 1.6 9.9 1.6 17.7 0 32-14.3 32-32v-134c88.1-119.6 90.4-284.9 1-408zm-571 390-12-5-99 31-1-104-8-9c-84.6-103.2-90.2-251.9-11-361 96.4-132.2 281.2-161.4 413-66 132.2 96.1 161.5 280.6 66 412-80.1 109.9-223.5 150.5-348 102zm505-17-8 10 1 104-98-33-12 5c-56 20.8-115.7 22.5-171 7l-.2-.1c73.9-22.7 140.9-68.7 189.2-134.9 76.4-105.3 88.8-237.6 44.4-350.4l.6.4c23 16.5 44.1 37.1 62 62 72.6 99.6 68.5 235.2-8 330z"/><path d="m433 421c-23.1 0-41 17.9-41 40s17.9 40 41 40c21.1 0 39-17.9 39-40s-17.9-40-39-40z"/></svg>