<svg viewBox="0 0 1024 1024" xmlns="http://www.w3.org/2000/svg"><path d="m832 64h-640c-17.7 0-32 14.3-32 32v832c0 17.7 14.3 32 32 32h640c17.7 0 32-14.3 32-32v-832c0-17.7-14.3-32-32-32zm-40 824h-560v-201h97.9c11.6 32.8 32 62.3 59.1 84.7 34.5 28.5 78.2 44.3 123 44.3s88.5-15.7 123-44.3c27.1-22.4 47.5-51.9 59.1-84.7h97.9v-63h-148.4l-5.2 24.7c-12 59.8-65.2 103.3-126.4 103.3s-114.4-43.5-126.5-103.3l-5.2-24.7h-148.3v-488h560zm-472-547h384c4.4 0 8-3.6 8-8v-48c0-4.4-3.6-8-8-8h-384c-4.4 0-8 3.6-8 8v48c0 4.4 3.6 8 8 8zm0 160h384c4.4 0 8-3.6 8-8v-48c0-4.4-3.6-8-8-8h-384c-4.4 0-8 3.6-8 8v48c0 4.4 3.6 8 8 8z"/></svg>