<svg width="16" height="17" viewBox="0 0 16 17" fill="none" xmlns="http://www.w3.org/2000/svg">
<path fill-rule="evenodd" clip-rule="evenodd" d="M12.7155 6.9264C12.2995 7.0764 11.9742 7.40106 11.8242 7.81773H9.7755C9.6135 7.56373 9.39216 7.3424 9.13816 7.1804V5.13173C9.55483 4.98173 9.8795 4.6564 10.0295 4.2404H11.8242C11.9742 4.6564 12.2995 4.98173 12.7155 5.13173V6.9264ZM6.86216 12.7797C6.4455 12.9297 6.12016 13.2551 5.97083 13.6711H4.1755C4.02616 13.2551 3.70083 12.9297 3.28483 12.7797V10.9851C3.70083 10.8351 4.02616 10.5104 4.1755 10.0937H6.22483C6.38683 10.3477 6.60816 10.5691 6.86216 10.7311V12.7797ZM13.8535 5.05973C14.3348 4.81906 14.6668 4.32506 14.6668 3.7524C14.6668 2.94573 14.0095 2.28906 13.2028 2.28906C12.6308 2.28906 12.1368 2.62106 11.8962 3.1024H9.9575C9.71683 2.62106 9.22283 2.28906 8.65016 2.28906C7.8435 2.28906 7.18683 2.94573 7.18683 3.7524C7.18683 4.32506 7.51883 4.81906 8.00016 5.05973V6.84173C6.83616 6.84173 5.88616 7.79173 5.88616 8.95573H4.10416C3.8635 8.4744 3.36883 8.1424 2.79683 8.1424C1.99016 8.1424 1.3335 8.79973 1.3335 9.6064C1.3335 10.1784 1.6655 10.6724 2.14616 10.9131V12.8517C1.6655 13.0924 1.3335 13.5864 1.3335 14.1591C1.3335 14.9657 1.99016 15.6224 2.79683 15.6224C3.36883 15.6224 3.8635 15.2904 4.10416 14.8091H6.04216C6.2835 15.2904 6.7775 15.6224 7.3495 15.6224C8.15616 15.6224 8.81283 14.9657 8.81283 14.1591C8.81283 13.5864 8.48083 13.0924 8.00016 12.8517V11.0697C9.16416 11.0697 10.1142 10.1197 10.1142 8.95573H11.8962C12.1368 9.43706 12.6308 9.76906 13.2028 9.76906C14.0095 9.76906 14.6668 9.11173 14.6668 8.30506C14.6668 7.73306 14.3348 7.23906 13.8535 6.99773V5.05973Z" fill="#5A656D"/>
</svg>
